<?xml version="1.0" encoding="UTF-8"?>
<svg width="512px" height="512px" viewBox="0 0 512 512" version="1.1" xmlns="http://www.w3.org/2000/svg" xmlns:xlink="http://www.w3.org/1999/xlink">
    <title>twitter</title>
    <g id="Social-Media-Icons" stroke="none" stroke-width="1" fill="none" fill-rule="evenodd">
        <g id="twitter" fill-rule="nonzero">
            <rect id="Rectangle" fill="#ED1B49" x="0" y="0" width="512" height="512" rx="15"></rect>
            <path d="M437,152 C425.144973,159.863855 411.226044,164.039533 397,164 C412.209437,155.040222 423.59741,140.805255 429,124 C416.392556,134.658111 400.505372,140.659936 384,141 C361.646893,118.105896 326.866915,112.710198 298.627955,127.755546 C270.388994,142.800894 255.46702,174.67714 262,206 C205.36028,203.009723 152.653838,176.111263 117,132 C99.1293349,164.336953 108.63504,204.952236 139,226 C127.937182,226.156308 116.987158,223.76099 107,219 C107.553502,252.150209 130.67312,280.636881 163,288 C152.543561,290.730691 141.606538,291.072473 131,289 C140.37955,318.253464 167.28686,338.333547 198,339 C166.357371,358.19554 130.009049,368.234601 93,368 C156.208558,409.265501 237.265929,411.427122 302.584003,373.589144 C367.902077,335.751166 406.351573,264.360647 402,189 C415.195793,178.208632 426.957807,165.774503 437,152" id="Path" fill="#FFFFFF"></path>
        </g>
    </g>
</svg>