<?xml version="1.0" encoding="UTF-8"?>
<svg width="512px" height="512px" viewBox="0 0 512 512" version="1.1" xmlns="http://www.w3.org/2000/svg" xmlns:xlink="http://www.w3.org/1999/xlink">
    <title>Instagram_logo_2016</title>
    <defs>
        <path d="M256.021333,0 C186.496,0 177.770667,0.304 150.464,1.54666667 C123.210667,2.79466667 104.608,7.10933333 88.3306667,13.44 C71.4933333,19.9786667 57.2106667,28.7253333 42.9813333,42.96 C28.7413333,57.1893333 19.9946667,71.472 13.4346667,88.304 C7.088,104.586667 2.768,123.194667 1.54133333,150.437333 C0.32,177.744 0,186.474667 0,256 C0,325.525333 0.309333333,334.224 1.54666667,361.530667 C2.8,388.784 7.11466667,407.386667 13.44,423.664 C19.984,440.501333 28.7306667,454.784 42.9653333,469.013333 C57.1893333,483.253333 71.472,492.021333 88.2986667,498.56 C104.586667,504.890667 123.194667,509.205333 150.442667,510.453333 C177.749333,511.696 186.469333,512 255.989333,512 C325.52,512 334.218667,511.696 361.525333,510.453333 C388.778667,509.205333 407.402667,504.890667 423.690667,498.56 C440.522667,492.021333 454.784,483.253333 469.008,469.013333 C483.248,454.784 491.994667,440.501333 498.554667,423.669333 C504.848,407.386667 509.168,388.778667 510.448,361.536 C511.674667,334.229333 511.994667,325.525333 511.994667,256 C511.994667,186.474667 511.674667,177.749333 510.448,150.442667 C509.168,123.189333 504.848,104.586667 498.554667,88.3093333 C491.994667,71.472 483.248,57.1893333 469.008,42.96 C454.768,28.72 440.528,19.9733333 423.674667,13.44 C407.354667,7.10933333 388.741333,2.79466667 361.488,1.54666667 C334.181333,0.304 325.488,0 255.941333,0 L256.021333,0 Z M233.056,46.1333333 C239.872,46.1226667 247.477333,46.1333333 256.021333,46.1333333 C324.373333,46.1333333 332.474667,46.3786667 359.466667,47.6053333 C384.426667,48.7466667 397.973333,52.9173333 406.997333,56.4213333 C418.944,61.0613333 427.461333,66.608 436.416,75.568 C445.376,84.528 450.922667,93.0613333 455.573333,105.008 C459.077333,114.021333 463.253333,127.568 464.389333,152.528 C465.616,179.514667 465.882667,187.621333 465.882667,255.941333 C465.882667,324.261333 465.616,332.368 464.389333,359.354667 C463.248,384.314667 459.077333,397.861333 455.573333,406.874667 C450.933333,418.821333 445.376,427.328 436.416,436.282667 C427.456,445.242667 418.949333,450.789333 406.997333,455.429333 C397.984,458.949333 384.426667,463.109333 359.466667,464.250667 C332.48,465.477333 324.373333,465.744 256.021333,465.744 C187.664,465.744 179.562667,465.477333 152.576,464.250667 C127.616,463.098667 114.069333,458.928 105.04,455.424 C93.0933333,450.784 84.56,445.237333 75.6,436.277333 C66.64,427.317333 61.0933333,418.805333 56.4426667,406.853333 C52.9386667,397.84 48.7626667,384.293333 47.6266667,359.333333 C46.4,332.346667 46.1546667,324.24 46.1546667,255.877333 C46.1546667,187.514667 46.4,179.450667 47.6266667,152.464 C48.768,127.504 52.9386667,113.957333 56.4426667,104.933333 C61.0826667,92.9866667 66.64,84.4533333 75.6,75.4933333 C84.56,66.5333333 93.0933333,60.9866667 105.04,56.336 C114.064,52.816 127.616,48.656 152.576,47.5093333 C176.192,46.4426667 185.344,46.1226667 233.056,46.0693333 L233.056,46.1333333 Z M392.672,88.64 C375.712,88.64 361.952,102.384 361.952,119.349333 C361.952,136.309333 375.712,150.069333 392.672,150.069333 C409.632,150.069333 423.392,136.309333 423.392,119.349333 C423.392,102.389333 409.632,88.6293333 392.672,88.6293333 L392.672,88.64 Z M256.021333,124.533333 C183.418667,124.533333 124.554667,183.397333 124.554667,256 C124.554667,328.602667 183.418667,387.44 256.021333,387.44 C328.624,387.44 387.466667,328.602667 387.466667,256 C387.466667,183.397333 328.618667,124.533333 256.016,124.533333 L256.021333,124.533333 Z M256.021333,170.666667 C303.146667,170.666667 341.354667,208.869333 341.354667,256 C341.354667,303.125333 303.146667,341.333333 256.021333,341.333333 C208.890667,341.333333 170.688,303.125333 170.688,256 C170.688,208.869333 208.890667,170.666667 256.021333,170.666667 Z" id="path-1"></path>
        <radialGradient cx="50%" cy="50%" fx="50%" fy="50%" r="72.8854995%" gradientTransform="translate(0.500000,0.500000),scale(0.999727,1.000000),rotate(58.936259),translate(-0.500000,-0.500000)" id="radialGradient-3">
            <stop stop-color="#F5515F" offset="0%"></stop>
            <stop stop-color="#9F041B" offset="100%"></stop>
        </radialGradient>
    </defs>
    <g id="Social-Media-Icons" stroke="none" stroke-width="1" fill="none" fill-rule="evenodd">
        <g id="Instagram_logo_2016">
            <mask id="mask-2" fill="white">
                <use xlink:href="#path-1"></use>
            </mask>
            <use id="Shape" fill="#FFFFFF" fill-rule="nonzero" xlink:href="#path-1"></use>
            <path d="M256.181333,-90.6666667 C111.424,-90.6666667 69.088,-90.5173333 60.8586667,-89.8346667 C31.152,-87.3653333 12.6666667,-82.688 -7.472,-72.6613333 C-22.992,-64.9546667 -35.232,-56.0213333 -47.312,-43.4986667 C-69.312,-20.6613333 -82.6453333,7.43466667 -87.472,40.832 C-89.8186667,57.0453333 -90.5013333,60.352 -90.64,143.168 C-90.6933333,170.773333 -90.64,207.104 -90.64,255.834667 C-90.64,400.474667 -90.48,442.768 -89.7866667,450.981333 C-87.3866667,479.888 -82.8533333,498.074667 -73.2533333,517.968 C-54.9066667,556.048 -19.8666667,584.634667 21.4133333,595.301333 C35.7066667,598.981333 51.4933333,601.008 71.76,601.968 C80.3466667,602.341333 167.866667,602.608 255.44,602.608 C343.013333,602.608 430.586667,602.501333 438.96,602.074667 C462.426667,600.970667 476.053333,599.141333 491.12,595.248 C532.666667,584.528 567.066667,556.368 585.786667,517.754667 C595.2,498.341333 599.973333,479.461333 602.133333,452.064 C602.602667,446.090667 602.8,350.853333 602.8,255.744 C602.8,160.618667 602.586667,65.5573333 602.117333,59.584 C599.930667,31.744 595.157333,13.024 585.44,-6.76266667 C577.466667,-22.96 568.613333,-35.056 555.76,-47.424 C532.821333,-69.3333333 504.768,-82.6666667 471.338667,-87.488 C455.141333,-89.8293333 451.914667,-90.5226667 369.034667,-90.6666667 L256.181333,-90.6666667 Z" id="Path" fill="url(#radialGradient-3)" fill-rule="nonzero" mask="url(#mask-2)"></path>
        </g>
    </g>
</svg>