<?xml version="1.0" encoding="UTF-8"?>
<svg width="508px" height="508px" viewBox="0 0 508 508" version="1.1" xmlns="http://www.w3.org/2000/svg" xmlns:xlink="http://www.w3.org/1999/xlink">
    <title>Slack_Mark</title>
    <g id="Social-Media-Icons" stroke="none" stroke-width="1" fill="none" fill-rule="evenodd">
        <g id="Slack_Mark" transform="translate(1.000000, 1.000000)" fill="#ED1B49" fill-rule="nonzero" stroke="#D4103A" stroke-width="2">
            <path d="M106.529051,319.476204 C106.529051,348.663942 82.6855474,372.507445 53.4978102,372.507445 C24.310073,372.507445 0.466569343,348.663942 0.466569343,319.476204 C0.466569343,290.288467 24.310073,266.444964 53.4978102,266.444964 L106.529051,266.444964 L106.529051,319.476204 Z" id="Path"></path>
            <path d="M133.250219,319.476204 C133.250219,290.288467 157.093723,266.444964 186.28146,266.444964 C215.469197,266.444964 239.312701,290.288467 239.312701,319.476204 L239.312701,452.259854 C239.312701,481.447591 215.469197,505.291095 186.28146,505.291095 C157.093723,505.291095 133.250219,481.447591 133.250219,452.259854 C133.250219,452.259854 133.250219,319.476204 133.250219,319.476204 Z" id="Path"></path>
            <path d="M186.28146,106.529051 C157.093723,106.529051 133.250219,82.6855474 133.250219,53.4978102 C133.250219,24.310073 157.093723,0.466569343 186.28146,0.466569343 C215.469197,0.466569343 239.312701,24.310073 239.312701,53.4978102 L239.312701,106.529051 L186.28146,106.529051 Z" id="Path"></path>
            <path d="M186.28146,133.250219 C215.469197,133.250219 239.312701,157.093723 239.312701,186.28146 C239.312701,215.469197 215.469197,239.312701 186.28146,239.312701 L53.4978102,239.312701 C24.310073,239.312701 0.466569343,215.469197 0.466569343,186.28146 C0.466569343,157.093723 24.310073,133.250219 53.4978102,133.250219 C53.4978102,133.250219 186.28146,133.250219 186.28146,133.250219 Z" id="Path"></path>
            <path d="M399.228613,186.28146 C399.228613,157.093723 423.072117,133.250219 452.259854,133.250219 C481.447591,133.250219 505.291095,157.093723 505.291095,186.28146 C505.291095,215.469197 481.447591,239.312701 452.259854,239.312701 L399.228613,239.312701 L399.228613,186.28146 Z" id="Path"></path>
            <path d="M372.507445,186.28146 C372.507445,215.469197 348.663942,239.312701 319.476204,239.312701 C290.288467,239.312701 266.444964,215.469197 266.444964,186.28146 L266.444964,53.4978102 C266.444964,24.310073 290.288467,0.466569343 319.476204,0.466569343 C348.663942,0.466569343 372.507445,24.310073 372.507445,53.4978102 L372.507445,186.28146 Z" id="Path"></path>
            <path d="M319.476204,399.228613 C348.663942,399.228613 372.507445,423.072117 372.507445,452.259854 C372.507445,481.447591 348.663942,505.291095 319.476204,505.291095 C290.288467,505.291095 266.444964,481.447591 266.444964,452.259854 L266.444964,399.228613 L319.476204,399.228613 Z" id="Path"></path>
            <path d="M319.476204,372.507445 C290.288467,372.507445 266.444964,348.663942 266.444964,319.476204 C266.444964,290.288467 290.288467,266.444964 319.476204,266.444964 L452.259854,266.444964 C481.447591,266.444964 505.291095,290.288467 505.291095,319.476204 C505.291095,348.663942 481.447591,372.507445 452.259854,372.507445 L319.476204,372.507445 Z" id="Path"></path>
        </g>
    </g>
</svg>