<?xml version="1.0" encoding="UTF-8"?>
<svg width="246px" height="243px" viewBox="0 0 246 243" version="1.1" xmlns="http://www.w3.org/2000/svg" xmlns:xlink="http://www.w3.org/1999/xlink">
    <title>Group</title>
    <defs>
        <polygon id="path-1" points="0 241.024209 244.862923 241.024209 244.862923 0 0 0"></polygon>
        <linearGradient x1="50%" y1="20.0777693%" x2="50%" y2="67.3654651%" id="linearGradient-3">
            <stop stop-color="#FFFFFF" offset="0%"></stop>
            <stop stop-color="#9C7A5A" offset="100%"></stop>
        </linearGradient>
    </defs>
    <g id="Geek-Variants" stroke="none" stroke-width="1" fill="none" fill-rule="evenodd">
        <g id="Elections-and-Website-Variants" transform="translate(-791.000000, 0.000000)">
            <g id="Group" transform="translate(913.780372, 121.453931) scale(-1, 1) rotate(-180.000000) translate(-913.780372, -121.453931) translate(791.280372, 0.453931)">
                <g id="Clipped">
                    <mask id="mask-2" fill="white">
                        <use xlink:href="#path-1"></use>
                    </mask>
                    <g id="Path"></g>
                    <g id="Group" mask="url(#mask-2)">
                        <g transform="translate(2.991787, 13.788550)">
                            <g id="Group" stroke="none" stroke-width="1" fill-rule="evenodd" transform="translate(3.055585, 22.108437)">
                                <path d="M26.028924,59.5413799 C28.1081448,47.4561212 30.4743951,38.7902845 33.127675,33.5438697 C35.9740212,27.9156987 35.1443195,26.8627225 44.1703452,15.6063806 C30.3282745,22.1791388 20.4859792,32.5463408 10.1424183,54.1903366 M6.8730496,61.7065622 C2.75225329,72.2069842 0.228786064,83.377545 0.228786064,94.4699886 C0.228786064,151.216582 46.9642139,197.219339 104.615829,197.219339 C162.263734,197.219339 208.999161,151.216582 208.999161,94.4699886 C208.999161,79.3976466 210,67.2171004 203.034017,50.2188387 C194.663875,29.7941777 183.383744,13.2171004 155.105803,0.21710037 C167.337796,13.452309 175.107095,22.9277778 181.413702,34.6435068 C187.720308,46.3592359 192.665279,62.2791498 196.248614,82.4032488" id="Shape" stroke="#EE264D" stroke-width="3"></path>
                            </g>
                            <g id="Group" stroke="none" stroke-width="1" fill-rule="evenodd" transform="translate(25.442943, 0.046873)">
                                <path d="M82.2235242,81.8250751 C80.9423223,81.816554 78.9628563,81.0919946 78.3539481,81.7715142 C77.8911188,82.2880149 59.8881746,75.7492645 53.8618809,81.6029444 C48.6398145,86.6754328 55.0858966,103.756047 56.9556493,109.680418 C39.0855225,96.9192898 -6.76590149,78.0308729 1.55237206,80.287316 C9.04042689,82.3185512 4.68329785,72.6614332 9.80833578,58.9192898 C15.0134684,44.9623825 29.7034924,26.8523733 37.7438033,20.4334968 C46.9261629,13.0993006 70.2808917,1.09434729 82.2235242,0.175290334 C94.1661568,1.09434729 117.518412,13.0993006 126.703245,20.4334968 C133.936735,26.2082586 158.087116,45.3011464 162.030563,60.0016378 C163.740171,66.37476 174.913437,94.6931752 172.933507,99.4912435 C171.070451,104.006087 152.406711,73.420572 147.039015,69.9192898 C142.242862,66.7908178 153.279516,89.9192898 153.279516,89.9192898 C148.488776,92.1270633 120.49758,65.2974874 81.0601554,64.4799362 C72.7331908,64.3073154 103.22081,79.8412381 91.723301,80.287316 C90.3988152,80.3396596 83.5034895,81.816554 82.2235242,81.8250751 Z" id="Path" fill="url(#linearGradient-3)" style="mix-blend-mode: overlay;"></path>
                            </g>
                            <path d="M16.9702691,92.3255376 C10.4651502,85.9121252 6.64849567,82.3535517 5.52030547,81.6498172 C4.13178067,80.783693 2.3243788,80.3451502 0.0980998493,80.3341888 C36.5363571,69.7379968 83.9364677,112.27423 82.8596053,109.606562 C77.9404003,97.420414 69.7394542,74.9062221 91.854063,79.2377559 C119.188774,84.5917382 124.931142,79.6764254 108.001513,68.1792605 C95.9036497,59.9634197 130.420804,68.3186067 152.597865,77.096163 C162.819729,81.1419196 174.887484,89.1429943 175.882989,89.9457205 C178.071783,91.7106572 179.932575,88.8749241 169.808608,68.1792605 C184.892768,77.2508895 194.619192,89.3831551 198.987881,104.576057" id="Path" stroke="#EE264D" stroke-width="3"></path>
                            <g id="Group" stroke="none" stroke-width="1" fill-rule="evenodd" transform="translate(126.451658, 42.527998)">
                                <path d="M0,10.9556459 C0,10.9556459 7.49923618,0.639079342 16.7483766,0.639079342 C25.9987537,0.639079342 33.4979898,10.9556459 33.4979898,10.9556459 C33.4979898,10.9556459 25.9987537,20.4201066 16.7483766,20.4201066 C7.49923618,20.4201066 0,10.9556459 0,10.9556459" id="Path" fill="#FFFFFF"></path>
                            </g>
                            <g id="Group" stroke="none" stroke-width="1" fill-rule="evenodd" transform="translate(55.270777, 42.527998)">
                                <path d="M33.6104998,10.9556459 C33.6104998,10.9556459 26.1112637,0.639079342 16.8621233,0.639079342 C7.61050949,0.639079342 0.112509992,10.9556459 0.112509992,10.9556459 C0.112509992,10.9556459 7.61050949,20.4201066 16.8621233,20.4201066 C26.1112637,20.4201066 33.6104998,10.9556459 33.6104998,10.9556459" id="Path" fill="#FFFFFF"></path>
                            </g>
                            <g id="Group" stroke="none" stroke-width="1" fill-rule="evenodd" transform="translate(132.931869, 46.526809)">
                                <path d="M0,10.9556459 C0,11.7371486 0.100171196,12.49674 0.272069914,13.229551 C2.67123188,15.8844692 6.18340714,17.5679868 10.1148174,17.5679868 C14.2688303,17.5679868 17.9627977,15.6872676 20.3594864,12.765762 C20.4683143,12.177809 20.5326218,11.5740312 20.5326218,10.9556459 C20.5326218,5.37435294 15.9371136,0.849671201 10.2656925,0.849671201 C4.59798155,0.849671201 0,5.37435294 0,10.9556459" id="Path" fill="#231F20"></path>
                            </g>
                            <g id="Group" stroke="none" stroke-width="1" fill-rule="evenodd" transform="translate(125.684916, 51.483630)">
                                <path d="M34.62708,1.21729398 C34.62708,1.21729398 29.5393726,9.00554089 19.130225,10.9580804 C8.71860407,12.9081854 0.765505804,2.00123131 0.765505804,2.00123131 C0.765505804,2.00123131 7.24695317,13.146775 14.6101544,15.0238424 C16.9697426,15.6251856 19.8994409,15.3391215 19.8994409,15.3391215 C19.8994409,15.3391215 24.1894887,17.0774173 24.8387465,16.6854486 C25.492951,16.2946973 24.0237734,14.3421577 24.0237734,14.3421577 C24.0237734,14.3421577 28.8653812,16.2618303 29.1782616,15.5911013 C29.4886687,14.9191551 27.7808116,12.5722123 27.7808116,12.5722123 C27.7808116,12.5722123 33.8059235,16.1802716 34.2647323,15.229565 C34.7210678,14.2764238 31.6021572,11.0725061 31.6021572,11.0725061 C31.6021572,11.0725061 41.4547982,15.6458796 41.8975301,13.8747168 C42.3439721,12.1035541 35.0401316,6.82415007 35.0401316,6.82415007 C35.0401316,6.82415007 47.6184184,11.7091508 47.9300621,9.86738503 C48.2392325,8.02440194 34.4947551,0.393185957 34.4947551,0.393185957 L34.62708,1.21729398 Z" id="Path" fill="#231F20"></path>
                            </g>
                            <g id="Group" stroke="none" stroke-width="1" fill-rule="evenodd" transform="translate(133.896481, 54.775795)">
                                <path d="M6.18340714,2.65188195 C6.18340714,1.20208482 4.98877288,0.0249615345 3.51835866,0.0249615345 C2.04547108,0.0249615345 0.852073504,1.20208482 0.852073504,2.65188195 C0.852073504,4.10046179 2.04547108,5.2727159 3.51835866,5.2727159 C4.98877288,5.2727159 6.18340714,4.10046179 6.18340714,2.65188195" id="Path" fill="#FFFFFF"></path>
                            </g>
                            <g id="Group" stroke="none" stroke-width="1" fill-rule="evenodd" transform="translate(41.416207, 51.483630)">
                                <path d="M13.6034957,1.21729398 C13.6034957,1.21729398 18.6924398,9.00554089 29.102824,10.9580804 C39.5132083,12.9081854 47.4663066,2.00123131 47.4663066,2.00123131 C47.4663066,2.00123131 40.9823858,13.146775 33.6204213,15.0238424 C31.2595965,15.6251856 28.3311348,15.3391215 28.3311348,15.3391215 C28.3311348,15.3391215 24.0435603,17.0774173 23.3918292,16.6854486 C22.7400981,16.2946973 24.208039,14.3421577 24.208039,14.3421577 C24.208039,14.3421577 19.3627211,16.2618303 19.0523141,15.5911013 C18.7406704,14.9191551 20.4497641,12.5722123 20.4497641,12.5722123 C20.4497641,12.5722123 14.4234155,16.1802716 13.96708,15.229565 C13.5095079,14.2764238 16.6296552,11.0725061 16.6296552,11.0725061 C16.6296552,11.0725061 6.77825091,15.6458796 6.33304559,13.8747168 C5.88784028,12.1035541 13.1904441,6.82415007 13.1904441,6.82415007 C13.1904441,6.82415007 0.613393988,11.7091508 0.304223631,9.86738503 C-0.00742008857,8.02440194 13.7358206,0.393185957 13.7358206,0.393185957 L13.6034957,1.21729398 Z" id="Path" fill="#231F20"></path>
                            </g>
                            <g id="Group" stroke="none" stroke-width="1" fill-rule="evenodd" transform="translate(61.375008, 46.526809)">
                                <path d="M21.0235843,10.9556459 C21.0235843,11.7371486 20.9234131,12.49674 20.7539877,13.229551 C18.3535891,15.8844692 14.8389405,17.5679868 10.9100036,17.5679868 C6.75599064,17.5679868 3.06202322,15.6872676 0.665334608,12.765762 C0.556506643,12.177809 0.490962527,11.5740312 0.490962527,10.9556459 C0.490962527,5.37435294 5.08647071,0.849671201 10.7578917,0.849671201 C16.4280761,0.849671201 21.0235843,5.37435294 21.0235843,10.9556459" id="Path" fill="#231F20"></path>
                            </g>
                            <g id="Group" stroke="none" stroke-width="1" fill-rule="evenodd" transform="translate(62.772458, 54.774577)">
                                <path d="M6.18340714,2.65188195 C6.18340714,1.20208482 4.98877288,0.0273961225 3.51835866,0.0273961225 C2.04547108,0.0273961225 0.850836823,1.20208482 0.850836823,2.65188195 C0.850836823,4.10046179 2.04547108,5.27515049 3.51835866,5.27515049 C4.98877288,5.27515049 6.18340714,4.10046179 6.18340714,2.65188195" id="Path" fill="#FFFFFF"></path>
                            </g>
                            <g id="Group" stroke="none" stroke-width="1" fill-rule="evenodd" transform="translate(101.134316, 37.856024)">
                                <path d="M2.47336286,1.21729398 C3.60739973,1.88558838 4.94548903,2.27147057 6.38622289,2.27147057 C7.82572008,2.27147057 9.16380938,1.88558838 10.3015563,1.21729398 C11.1486831,1.09069541 11.9537627,0.930012604 12.6932982,0.732810978 C11.3737591,2.70969641 9.05003469,4.03411226 6.38622289,4.03411226 C3.72117442,4.03411226 1.3986867,2.70969641 0.07791093,0.732810978 C0.817446424,0.930012604 1.62376272,1.09069541 2.47336286,1.21729398" id="Path" fill="#231F20"></path>
                            </g>
                            <g id="Group" stroke="none" stroke-width="1" fill-rule="evenodd" transform="translate(40.857227, 37.714818)">
                                <path d="M16.0768586,0 C15.8530192,0.0255631737 10.6515371,1.59343783 6.29347179,6.09377368 C0.440258588,12.1388556 0.781582663,16.6367569 0.461282173,17.9502171 L1.73877409,15.498587 C1.74990422,15.4401569 3.29080928,10.7888766 7.37185799,7.28793908 C11.7027164,3.57154055 16.2450472,1.75290334 16.2945145,1.74803416 L16.0768586,0 Z" id="Path" fill="#231F20"></path>
                            </g>
                            <g id="Group" stroke="none" stroke-width="1" fill-rule="evenodd" transform="translate(158.125571, 37.714818)">
                                <path d="M0.220101276,-5.68434189e-14 C0.443940615,0.0255631737 5.64665938,1.59343783 10.0047247,6.09377368 C15.8591746,12.1388556 15.5153772,16.6367569 15.8356777,17.9502171 L14.5581858,15.498587 C14.5470556,15.4401569 13.0086239,10.7888766 8.92633853,7.28793908 C4.59671685,3.57154055 0.0506759208,1.75290334 0.00244534513,1.74803416 L0.220101276,-5.68434189e-14 Z" id="Path" fill="#231F20"></path>
                            </g>
                            <g id="Group" stroke="none" stroke-width="1" fill-rule="evenodd" transform="translate(54.569550, 21.699454)">
                                <path d="M48.2305757,18.3355263 C47.2127869,21.2156439 26.80878,21.3020717 24.4862923,21.3020717 C9.11310544,21.3020717 1.10806656,20.0957334 0.682648148,17.5978461 C0.682648148,9.70978112 11.6099652,0.0712473599 24.3601508,0.0712473599 C36.944621,0.0712473599 47.7495066,9.45536668 48.0339433,17.282567 C48.3851609,17.7220101 48.2973565,18.1504976 48.2305757,18.3355263 L48.2305757,18.3355263 Z M46.5054051,17.0171969 C46.5054051,11.2484407 37.7954578,2.34758711 26.2250664,2.34758711 C14.6534382,2.34758711 5.94472762,11.2484407 5.92865077,16.88086 C6.32686219,17.7414868 12.0897976,19.0220801 26.3388411,19.0220801 C37.3997197,19.0220801 44.8259917,18.0811119 46.5054051,17.3349106 L46.5054051,17.0171969 Z" id="Shape" fill="#231F20" fill-rule="nonzero"></path>
                            </g>
                            <g id="Group" stroke="none" stroke-width="1" fill-rule="evenodd" transform="translate(111.450713, 21.722611)">
                                <path d="M1.23668143,17.2594098 C1.52111816,9.43220944 12.3284772,0.0480901202 24.910474,0.0480901202 C37.6631329,0.0480901202 48.59045,9.68662389 48.59045,17.5746889 C48.1637949,20.0725762 40.1562827,21.2789145 24.7868059,21.2789145 C22.4618448,21.2789145 2.0578379,21.1924866 1.04128576,18.3123691 C0.974504965,18.1261231 0.889173947,17.6988529 1.23668143,17.2594098 L1.23668143,17.2594098 Z M2.76521967,17.3117534 C4.44957978,18.0579546 11.8746151,18.9989229 22.9330204,18.9989229 C37.1808271,18.9989229 42.9437626,17.7183296 43.341974,16.8577027 C43.3258972,11.2252835 34.6196599,2.32442987 23.0480318,2.32442987 C11.475167,2.32442987 2.76521967,11.2252835 2.76521967,16.9940397 L2.76521967,17.3117534 Z" id="Shape" fill="#231F20" fill-rule="nonzero"></path>
                            </g>
                        </g>
                    </g>
                </g>
            </g>
        </g>
    </g>
</svg>